<svg width="300" height="400.00000000000006" xmlns="http://www.w3.org/2000/svg">
 <!-- Created with Method Draw - http://github.com/duopixel/Method-Draw/ -->

 <g>
  <title>background</title>
  <rect x="-1" y="-1" width="300" height="400" id="canvas_background" fill="#fff"/>
 </g>
 <g>
  <title>Layer 1</title>
  <path stroke="#000" fill="#007fff" stroke-width="0" stroke-opacity="null" fill-opacity="null" d="m-26.486553,365.5l25.793631,-11.5c0.505757,0.5 51.081504,-52.5 146.163907,-1.5c95.082403,51 158.807843,-2 158.302086,-2.5c0.505757,0.5 18.713026,-0.5 19.724541,0.5c1.011515,1 -2.02303,64 -1.011515,63c1.011515,-1 -332.788411,8 -332.282653,7.5c-0.505757,0.5 -226.073586,69.5 -16.689996,-55.5z" id="svg_4"/>
  <path stroke="#000" fill="#007fff" stroke-width="0" stroke-opacity="null" fill-opacity="null" d="m108.040391,363.5l25.656602,-11.5c0.50307,0.5 50.810132,-52.5 145.387408,-1.5c94.577275,51 157.964173,-2 157.461102,-2.5c0.503071,0.5 18.613613,-0.5 19.619754,0.5c1.006142,1 -2.012282,64 -1.006141,63c1.006141,-1 -331.020465,8 -330.517394,7.5c-0.503071,0.5 -224.872565,69.5 -16.601331,-55.5z" id="svg_3" opacity="0.44"/>
 </g>
</svg>