<svg width="360" height="400" xmlns="http://www.w3.org/2000/svg">
 <!-- Created with Method Draw - http://github.com/duopixel/Method-Draw/ -->

 <g>
  <title>background</title>
  <rect fill="#fff" id="canvas_background" height="402" width="362" y="-1" x="-1"/>
 </g>
 <g>
  <title>Layer 1</title>
  <g stroke="null" id="svg_27">
   <path stroke="#005fbf" id="svg_25" d="m9.920027,336.68785c0,0 42.924298,0 42.827123,-0.000001c0.097175,0.000001 10.002782,0.000001 10.002782,8.93447c0,8.934469 0,76.525671 -0.097175,76.525668c0.097175,0.000003 -0.097053,8.351789 -10.00266,8.351789c-9.905607,0 -42.924298,-0.194227 -43.021471,-0.000003c0.096734,0.000003 -9.031523,-0.388452 -9.031523,-8.740238c0,-8.351787 0,-76.137216 -0.097173,-76.137217c0.097173,0.000001 9.420097,-8.934468 9.420097,-8.934468z" fill-opacity="null" stroke-opacity="null" stroke-width="0" fill="#f47069"/>
   <path stroke="#005fbf" id="svg_26" d="m0.597103,345.428091c0,0 0.194227,-8.351786 9.517152,-8.740241c9.322924,-0.388455 6.603738,25.832269 6.506564,25.832268c0.097174,0.000001 -16.023716,-17.092027 -16.023716,-17.092027z" fill-opacity="null" stroke-opacity="null" stroke-width="0" fill="#f47069"/>
  </g>
  <g stroke="null" id="svg_69">
   <path stroke="#005fbf" id="svg_67" d="m138.985563,362.870341c0,0 24.996074,0 24.939486,0c0.056588,0 5.824912,0 5.824912,5.202803c0,5.202803 0,44.563136 -0.056587,44.563135c0.056587,0.000001 -0.056517,4.863491 -5.824841,4.863491c-5.768325,0 -24.996074,-0.113104 -25.052661,-0.000002c0.056331,0.000002 -5.259321,-0.226207 -5.259321,-5.089697c0,-4.863489 0,-44.336927 -0.056586,-44.336927c0.056586,0 5.485598,-5.202803 5.485598,-5.202803z" fill-opacity="null" stroke-opacity="null" stroke-width="0" fill="#f47069"/>
   <path stroke="#005fbf" id="svg_68" d="m133.556551,367.96004c0,0 0.113105,-4.86349 5.542116,-5.089699c5.429012,-0.226209 3.84555,15.042886 3.788963,15.042886c0.056587,0 -9.331079,-9.953187 -9.331079,-9.953187z" fill-opacity="null" stroke-opacity="null" stroke-width="0" fill="#f47069"/>
  </g>
  <g opacity="0.3" stroke="null" id="svg_33">
   <path stroke="#005fbf" id="svg_31" d="m89.985549,324.870333c0,0 24.996074,0 24.939486,0c0.056587,0 5.824912,0 5.824912,5.202803c0,5.202803 0,44.563136 -0.056587,44.563135c0.056587,0.000002 -0.056517,4.863491 -5.824841,4.863491c-5.768325,0 -24.996074,-0.113104 -25.052661,-0.000002c0.056331,0.000002 -5.259321,-0.226207 -5.259321,-5.089697c0,-4.863489 0,-44.336927 -0.056587,-44.336928c0.056587,0.000001 5.485599,-5.202803 5.485599,-5.202803z" fill-opacity="null" stroke-opacity="null" stroke-width="0" fill="#f47069"/>
   <path stroke="#005fbf" id="svg_32" d="m84.556537,329.960032c0,0 0.113105,-4.863489 5.542116,-5.089699c5.429012,-0.226209 3.84555,15.042886 3.788963,15.042886c0.056587,0.000001 -9.331079,-9.953187 -9.331079,-9.953187z" fill-opacity="null" stroke-opacity="null" stroke-width="0" fill="#f47069"/>
  </g>
  <g stroke="null" id="svg_39">
   <path stroke="#005fbf" id="svg_37" d="m130.923428,257.447809c0,0 20.15627,0 20.110639,0c0.045631,0 4.697077,0 4.697077,4.195423c0,4.195423 0,35.934707 -0.045631,35.934705c0.045631,0.000001 -0.045574,3.92181 -4.697021,3.92181c-4.651447,0 -20.156269,-0.091205 -20.2019,-0.000001c0.045424,0.000001 -4.240997,-0.182409 -4.240997,-4.104217c0,-3.921808 0,-35.752297 -0.04563,-35.752298c0.04563,0 4.423462,-4.195422 4.423462,-4.195422z" fill-opacity="null" stroke-opacity="null" stroke-width="0" fill="#f47069"/>
   <path stroke="#005fbf" id="svg_38" d="m126.545596,261.552027c0,0 0.091205,-3.921808 4.469037,-4.104218c4.377832,-0.18241 3.100964,12.130244 3.055334,12.130243c0.04563,0.000001 -7.524371,-8.026025 -7.524371,-8.026025z" fill-opacity="null" stroke-opacity="null" stroke-width="0" fill="#f47069"/>
  </g>
  <g stroke="null" id="svg_51">
   <path stroke="#005fbf" id="svg_49" d="m27.801459,244.786094c0,0 33.270638,0 33.195319,-0.000001c0.07532,0.000001 7.753159,0.000001 7.753159,6.925111c0,6.92511 0,59.315074 -0.07532,59.315072c0.07532,0.000002 -0.075226,6.473475 -7.753065,6.473475c-7.67784,0 -33.270638,-0.150545 -33.345957,-0.000002c0.074978,0.000002 -7.000337,-0.30109 -7.000337,-6.774562c0,-6.473473 0,-59.013983 -0.075319,-59.013984c0.075319,0.000001 7.30152,-6.925109 7.30152,-6.925109z" fill-opacity="null" stroke-opacity="null" stroke-width="0" fill="#f47069"/>
   <path stroke="#005fbf" id="svg_50" d="m20.575258,251.560658c0,0 0.150546,-6.473472 7.376748,-6.774564c7.226202,-0.301092 5.11856,20.022601 5.043241,20.0226c0.075319,0.000001 -12.419989,-13.248036 -12.419989,-13.248036z" fill-opacity="null" stroke-opacity="null" stroke-width="0" fill="#f47069"/>
  </g>
  <g opacity="0.79" stroke="null" id="svg_57">
   <path stroke="#005fbf" id="svg_55" d="m203.406815,312.758032c0,0 36.028829,0 35.947265,-0.000001c0.081564,0.000001 8.395909,0.000001 8.395909,7.499214c0,7.499213 0,64.232391 -0.081564,64.232388c0.081564,0.000003 -0.081462,7.010136 -8.395807,7.010136c-8.314346,0 -36.028829,-0.163026 -36.110391,-0.000001c0.081193,0.000001 -7.580677,-0.326051 -7.580677,-7.336185c0,-7.010134 0,-63.906338 -0.081563,-63.906339c0.081563,0.000001 7.906828,-7.499212 7.906828,-7.499212z" fill-opacity="null" stroke-opacity="null" stroke-width="0" fill="#f47069"/>
   <path stroke="#005fbf" id="svg_56" d="m195.58155,320.094218c0,0 0.163026,-7.010134 7.988292,-7.336186c7.825266,-0.326053 5.542897,21.682507 5.461334,21.682506c0.081563,0.000001 -13.449626,-14.34632 -13.449626,-14.34632z" fill-opacity="null" stroke-opacity="null" stroke-width="0" fill="#f47069"/>
  </g>
  <g opacity="0.94" stroke="null" id="svg_63">
   <path stroke="#005fbf" id="svg_61" d="m282.10418,256.772051c0,0 34.649735,0 34.571294,-0.000001c0.078441,0.000001 8.074534,0.000001 8.074534,7.212162c0,7.212162 0,61.773736 -0.078442,61.773733c0.078442,0.000003 -0.078344,6.741806 -8.074436,6.741806c-7.996094,0 -34.649735,-0.156786 -34.728176,-0.000002c0.078085,0.000002 -7.290508,-0.31357 -7.290508,-7.055374c0,-6.741804 0,-61.460163 -0.078441,-61.460163c0.078441,0 7.604175,-7.212161 7.604175,-7.212161z" fill-opacity="null" stroke-opacity="null" stroke-width="0" fill="#f47069"/>
   <path stroke="#005fbf" id="svg_62" d="m274.578446,263.827426c0,0 0.156787,-6.741803 7.682521,-7.055375c7.525734,-0.313573 5.330728,20.852554 5.252287,20.852554c0.078441,0 -12.934808,-13.797179 -12.934808,-13.797179z" fill-opacity="null" stroke-opacity="null" stroke-width="0" fill="#f47069"/>
  </g>
  <g opacity="0.43" stroke="null" id="svg_45">
   <path stroke="#005fbf" id="svg_43" d="m210.104161,206.772038c0,0 34.649735,0 34.571293,-0.000001c0.078442,0.000001 8.074534,0.000001 8.074534,7.212163c0,7.212162 0,61.773735 -0.078442,61.773733c0.078442,0.000002 -0.078344,6.741806 -8.074436,6.741806c-7.996093,0 -34.649735,-0.156786 -34.728176,-0.000002c0.078086,0.000002 -7.290507,-0.31357 -7.290507,-7.055374c0,-6.741804 0,-61.460163 -0.078441,-61.460164c0.078441,0.000001 7.604175,-7.212161 7.604175,-7.212161z" fill-opacity="null" stroke-opacity="null" stroke-width="0" fill="#f47069"/>
   <path stroke="#005fbf" id="svg_44" d="m202.578427,213.827413c0,0 0.156786,-6.741803 7.68252,-7.055375c7.525734,-0.313572 5.330728,20.852555 5.252287,20.852554c0.078441,0.000001 -12.934808,-13.797179 -12.934808,-13.797179z" fill-opacity="null" stroke-opacity="null" stroke-width="0" fill="#f47069"/>
  </g>
  <g stroke="null" id="svg_21">
   <path stroke="#005fbf" id="svg_18" d="m319.920106,365.687857c0,0 42.924298,0 42.827123,-0.000001c0.097174,0.000001 10.002782,0.000001 10.002782,8.93447c0,8.934469 0,76.525671 -0.097175,76.525668c0.097175,0.000003 -0.097053,8.351789 -10.00266,8.351789c-9.905607,0 -42.924298,-0.194228 -43.021471,-0.000003c0.096734,0.000003 -9.031524,-0.388452 -9.031524,-8.740239c0,-8.351786 0,-76.137216 -0.097173,-76.137217c0.097173,0.000001 9.420097,-8.934468 9.420097,-8.934468z" fill-opacity="null" stroke-opacity="null" stroke-width="0" fill="#f47069"/>
   <path stroke="#005fbf" id="svg_20" d="m310.597182,374.428099c0,0 0.194228,-8.351786 9.517152,-8.740242c9.322924,-0.388455 6.603738,25.83227 6.506565,25.832268c0.097173,0.000001 -16.023717,-17.092027 -16.023717,-17.092027z" fill-opacity="null" stroke-opacity="null" stroke-width="0" fill="#f47069"/>
  </g>
  <line stroke-linecap="null" stroke-linejoin="null" id="svg_10" y2="69.000008" x2="-145.5" y1="70.000008" x1="-147.5" fill-opacity="null" stroke="#005fbf" fill="none"/>
  <g stroke="null" id="svg_30">
   <path stroke="#005fbf" id="svg_28" d="m1.920026,344.687853c0,0 42.924298,0 42.827123,0c0.097175,0 10.002782,0 10.002782,8.934469c0,8.93447 0,76.525671 -0.097175,76.525669c0.097175,0.000002 -0.097053,8.351789 -10.00266,8.351789c-9.905607,0 -42.924298,-0.194228 -43.021471,-0.000003c0.096734,0.000003 -9.031523,-0.388452 -9.031523,-8.740239c0,-8.351786 0,-76.137216 -0.097173,-76.137216c0.097173,0 9.420097,-8.934469 9.420097,-8.934469z" fill-opacity="null" stroke-opacity="null" stroke-width="0" fill="#db4437"/>
   <path stroke="#005fbf" id="svg_29" d="m-7.402898,353.428095c0,0 0.194227,-8.351787 9.517152,-8.740242c9.322924,-0.388455 6.603738,25.83227 6.506564,25.832269c0.097174,0.000001 -16.023716,-17.092027 -16.023716,-17.092027z" fill-opacity="null" stroke-opacity="null" stroke-width="0" fill="#db4437"/>
  </g>
  <g stroke="null" id="svg_72">
   <path stroke="#005fbf" id="svg_70" d="m134.834236,369.377361c0,0 24.306527,0 24.2515,0c0.055027,0 5.664226,0 5.664226,5.059277c0,5.059277 0,43.333808 -0.055027,43.333807c0.055027,0.000001 -0.054958,4.729326 -5.664156,4.729326c-5.609199,0 -24.306527,-0.109985 -24.361553,-0.000002c0.054777,0.000002 -5.114235,-0.219967 -5.114235,-4.949291c0,-4.729324 0,-43.11384 -0.055026,-43.11384c0.055026,0 5.334271,-5.059277 5.334271,-5.059277z" fill-opacity="null" stroke-opacity="null" stroke-width="0" fill="#db4437"/>
   <path stroke="#005fbf" id="svg_71" d="m129.554991,374.326654c0,0 0.109984,-4.729325 5.38923,-4.949293c5.279245,-0.219969 3.739465,14.62791 3.684439,14.627909c0.055026,0.000001 -9.073669,-9.678616 -9.073669,-9.678616z" fill-opacity="null" stroke-opacity="null" stroke-width="0" fill="#db4437"/>
  </g>
  <g opacity="0.3" stroke="null" id="svg_36">
   <path stroke="#005fbf" id="svg_34" d="m85.834222,331.377353c0,0 24.306527,0 24.2515,0c0.055027,0 5.664225,0 5.664225,5.059277c0,5.059278 0,43.333808 -0.055027,43.333807c0.055027,0.000001 -0.054958,4.729326 -5.664156,4.729326c-5.609198,0 -24.306527,-0.109985 -24.361553,-0.000002c0.054777,0.000002 -5.114235,-0.219967 -5.114235,-4.949291c0,-4.729324 0,-43.11384 -0.055026,-43.11384c0.055026,0 5.334271,-5.059277 5.334271,-5.059277z" fill-opacity="null" stroke-opacity="null" stroke-width="0" fill="#db4437"/>
   <path stroke="#005fbf" id="svg_35" d="m80.554977,336.326646c0,0 0.109984,-4.729325 5.38923,-4.949293c5.279245,-0.219968 3.739466,14.62791 3.684439,14.627909c0.055026,0.000001 -9.073669,-9.678616 -9.073669,-9.678616z" fill-opacity="null" stroke-opacity="null" stroke-width="0" fill="#db4437"/>
  </g>
  <g stroke="null" id="svg_42">
   <path stroke="#005fbf" id="svg_40" d="m124.926275,263.419457c0,0 20.169243,0 20.123582,0c0.045661,0 4.700101,0 4.700101,4.198123c0,4.198123 0,35.957836 -0.045661,35.957835c0.045661,0.000001 -0.045603,3.924334 -4.700044,3.924334c-4.654441,0 -20.169243,-0.091264 -20.214902,-0.000001c0.045453,0.000001 -4.243727,-0.182526 -4.243727,-4.106858c0,-3.924332 0,-35.775309 -0.04566,-35.775309c0.04566,0 4.426309,-4.198123 4.426309,-4.198123z" fill-opacity="null" stroke-opacity="null" stroke-width="0" fill="#db4437"/>
   <path stroke="#005fbf" id="svg_41" d="m120.545626,267.526316c0,0 0.091263,-3.924333 4.471914,-4.10686c4.38065,-0.182527 3.10296,12.138051 3.0573,12.138051c0.04566,0 -7.529214,-8.031191 -7.529214,-8.031191z" fill-opacity="null" stroke-opacity="null" stroke-width="0" fill="#db4437"/>
  </g>
  <g stroke="null" id="svg_54">
   <path stroke="#005fbf" id="svg_52" d="m20.650131,252.293118c0,0 32.58109,0 32.507331,0c0.073759,0 7.592472,0 7.592472,6.781584c0,6.781585 0,58.085744 -0.073759,58.085743c0.073759,0.000002 -0.073667,6.339309 -7.59238,6.339309c-7.518713,0 -32.58109,-0.147426 -32.654848,-0.000002c0.073425,0.000002 -6.855252,-0.294849 -6.855252,-6.634157c0,-6.339307 0,-57.790893 -0.073758,-57.790893c0.073758,0 7.150193,-6.781584 7.150193,-6.781584z" fill-opacity="null" stroke-opacity="null" stroke-width="0" fill="#db4437"/>
   <path stroke="#005fbf" id="svg_53" d="m13.573696,258.927277c0,0 0.147425,-6.339308 7.223862,-6.634159c7.076436,-0.294851 5.012475,19.607625 4.938717,19.607624c0.073759,0.000001 -12.162578,-12.973465 -12.162578,-12.973465z" fill-opacity="null" stroke-opacity="null" stroke-width="0" fill="#db4437"/>
  </g>
  <g opacity="0.79" stroke="null" id="svg_60">
   <path stroke="#005fbf" id="svg_58" d="m195.406815,321.758034c0,0 36.028828,0 35.947264,0c0.081564,0 8.395909,0 8.395909,7.499213c0,7.499214 0,64.232391 -0.081564,64.23239c0.081564,0.000001 -0.081463,7.010136 -8.395807,7.010136c-8.314345,0 -36.028829,-0.163027 -36.110392,-0.000003c0.081194,0.000003 -7.580676,-0.32605 -7.580676,-7.336184c0,-7.010134 0,-63.906339 -0.081563,-63.906339c0.081563,0 7.906829,-7.499213 7.906829,-7.499213z" fill-opacity="null" stroke-opacity="null" stroke-width="0" fill="#db4437"/>
   <path stroke="#005fbf" id="svg_59" d="m187.581549,329.094222c0,0 0.163026,-7.010135 7.988292,-7.336188c7.825266,-0.326052 5.542897,21.682508 5.461333,21.682508c0.081564,0 -13.449625,-14.34632 -13.449625,-14.34632z" fill-opacity="null" stroke-opacity="null" stroke-width="0" fill="#db4437"/>
  </g>
  <g opacity="0.94" stroke="null" id="svg_66">
   <path stroke="#005fbf" id="svg_64" d="m274.104179,264.772053c0,0 34.649735,0 34.571293,0c0.078442,0 8.074535,0 8.074535,7.212162c0,7.212163 0,61.773735 -0.078443,61.773734c0.078443,0.000001 -0.078344,6.741805 -8.074436,6.741805c-7.996093,0 -34.649735,-0.156786 -34.728176,-0.000002c0.078087,0.000002 -7.290506,-0.31357 -7.290506,-7.055374c0,-6.741803 0,-61.460163 -0.078441,-61.460163c0.078441,0 7.604174,-7.212162 7.604174,-7.212162z" fill-opacity="null" stroke-opacity="null" stroke-width="0" fill="#db4437"/>
   <path stroke="#005fbf" id="svg_65" d="m266.578446,271.82743c0,0 0.156785,-6.741805 7.68252,-7.055377c7.525734,-0.313572 5.330728,20.852556 5.252287,20.852555c0.078441,0.000001 -12.934807,-13.797178 -12.934807,-13.797178z" fill-opacity="null" stroke-opacity="null" stroke-width="0" fill="#db4437"/>
  </g>
  <g opacity="0.43" stroke="null" id="svg_48">
   <path stroke="#005fbf" id="svg_46" d="m203.10416,213.772041c0,0 34.649735,0 34.571292,0c0.078442,0 8.074535,0 8.074535,7.212162c0,7.212163 0,61.773735 -0.078442,61.773734c0.078442,0.000002 -0.078344,6.741806 -8.074436,6.741806c-7.996092,0 -34.649735,-0.156786 -34.728176,-0.000002c0.078086,0.000002 -7.290507,-0.31357 -7.290507,-7.055374c0,-6.741803 0,-61.460163 -0.078441,-61.460163c0.078441,0 7.604175,-7.212162 7.604175,-7.212162z" fill-opacity="null" stroke-opacity="null" stroke-width="0" fill="#db4437"/>
   <path stroke="#005fbf" id="svg_47" d="m195.578426,220.827417c0,0 0.156786,-6.741804 7.68252,-7.055376c7.525734,-0.313572 5.330728,20.852556 5.252287,20.852555c0.078442,0.000001 -12.934807,-13.797179 -12.934807,-13.797179z" fill-opacity="null" stroke-opacity="null" stroke-width="0" fill="#db4437"/>
  </g>
  <g stroke="null" id="svg_24">
   <path stroke="#005fbf" id="svg_22" d="m311.920105,373.68786c0,0 42.924298,0 42.827123,0c0.097175,0 10.002782,0 10.002782,8.934469c0,8.93447 0,76.525671 -0.097175,76.525669c0.097175,0.000002 -0.097053,8.351789 -10.00266,8.351789c-9.905607,0 -42.924298,-0.194228 -43.021471,-0.000003c0.096734,0.000003 -9.031523,-0.388452 -9.031523,-8.740239c0,-8.351786 0,-76.137216 -0.097173,-76.137216c0.097173,0 9.420097,-8.934469 9.420097,-8.934469z" fill-opacity="null" stroke-opacity="null" stroke-width="0" fill="#db4437"/>
   <path stroke="#005fbf" id="svg_23" d="m302.597181,382.428102c0,0 0.194227,-8.351787 9.517152,-8.740242c9.322924,-0.388455 6.603738,25.83227 6.506564,25.832269c0.097174,0.000001 -16.023716,-17.092027 -16.023716,-17.092027z" fill-opacity="null" stroke-opacity="null" stroke-width="0" fill="#db4437"/>
  </g>
 </g>
</svg>